<svg width="44" height="44" viewBox="0 0 44 44" fill="none" xmlns="http://www.w3.org/2000/svg">
<rect width="44" height="44" rx="2" fill="white"/>
<g clip-path="url(#clip0)">
<path d="M24.1764 18.2188C23.8602 18.2188 23.6035 18.4755 23.6035 18.7917C23.6035 19.108 23.8602 19.3646 24.1764 19.3646C24.4927 19.3646 24.7493 19.108 24.7493 18.7917C24.7493 18.4755 24.4927 18.2188 24.1764 18.2188Z" fill="black" fill-opacity="0.5"/>
<path d="M35.0779 32.7548L28.5878 26.2646C27.9147 25.5915 27.8276 24.5444 28.236 23.6845C28.9575 22.1654 29.3327 20.5052 29.3327 18.7917C29.3327 12.4736 24.1925 7.33337 17.8743 7.33337C11.5562 7.33337 6.41602 12.4736 6.41602 18.7917C6.41602 25.1098 11.5562 30.25 17.8743 30.25C19.5879 30.25 21.2481 29.8748 22.7672 29.1534C23.627 28.745 24.6741 28.8321 25.3472 29.5051L26.3039 30.4618C26.3042 30.4621 26.3045 30.4624 26.3048 30.4628L31.8374 35.9953C32.2704 36.4283 32.8457 36.6667 33.4577 36.6667C34.0696 36.6667 34.645 36.4283 35.0778 35.9955C35.5108 35.5628 35.7493 34.9873 35.7493 34.375C35.7493 33.7628 35.5108 33.1873 35.0779 32.7548ZM23.9208 27.1406C23.9207 27.1406 23.9207 27.1407 23.9206 27.1407V27.1407C23.9206 27.1408 23.9206 27.1408 23.9205 27.1408C22.1521 28.4252 20.0615 29.1042 17.8743 29.1042C12.188 29.1042 7.56185 24.478 7.56185 18.7917C7.56185 13.1054 12.188 8.47921 17.8743 8.47921C23.5607 8.47921 28.1868 13.1054 28.1868 18.7917C28.1868 20.9788 27.5079 23.0695 26.2233 24.838C25.5807 25.7233 24.8061 26.498 23.9208 27.1406ZM25.934 28.4714C25.4996 28.037 25.5388 27.3249 25.9732 26.8905V26.8905C26.4076 26.4561 27.1197 26.417 27.5541 26.8514L27.6294 26.9267C28.0469 27.3442 28.0778 28.0159 27.6634 28.4364C27.6157 28.4849 27.5675 28.533 27.5191 28.5808C27.0985 28.9952 26.4268 28.9642 26.0093 28.5467L25.934 28.4714ZM34.2677 35.1851C34.0512 35.4016 33.7635 35.5209 33.4577 35.5209C33.1519 35.5209 32.8642 35.4016 32.6476 35.1851L28.3712 30.9086C27.9338 30.4712 27.9638 29.7562 28.4013 29.3187V29.3187C28.8387 28.8813 29.5538 28.8512 29.9913 29.2887L34.2678 33.5652C34.4843 33.7814 34.6035 34.069 34.6035 34.375C34.6035 34.6811 34.4843 34.9686 34.2677 35.1851Z" fill="black" fill-opacity="0.5"/>
<path d="M17.8747 9.62506C12.8201 9.62506 8.70801 13.7372 8.70801 18.7917C8.70801 23.8463 12.8201 27.9584 17.8747 27.9584C22.9292 27.9584 27.0413 23.8463 27.0413 18.7917C27.0413 13.7372 22.9292 9.62506 17.8747 9.62506ZM17.8747 26.8126C13.452 26.8126 9.85384 23.2144 9.85384 18.7917C9.85384 14.369 13.452 10.7709 17.8747 10.7709C22.2974 10.7709 25.8955 14.369 25.8955 18.7917C25.8955 23.2144 22.2974 26.8126 17.8747 26.8126Z" fill="black" fill-opacity="0.5"/>
<path d="M24.2951 16.3323C23.8017 15.0483 22.9428 13.9505 21.8109 13.1576C20.6521 12.3458 19.291 11.9167 17.8747 11.9167C17.5583 11.9167 17.3018 12.1732 17.3018 12.4896C17.3018 12.806 17.5583 13.0625 17.8747 13.0625C20.2293 13.0625 22.3796 14.5417 23.2255 16.7433C23.313 16.9711 23.5301 17.1109 23.7604 17.1109C23.8287 17.1109 23.8982 17.0986 23.9658 17.0727C24.2611 16.9592 24.4086 16.6277 24.2951 16.3323Z" fill="black" fill-opacity="0.5"/>
</g>
<defs>
<clipPath id="clip0">
<rect width="29.3333" height="29.3333" fill="white" transform="translate(6.41602 7.33337)"/>
</clipPath>
</defs>
</svg>
