<svg width="280" height="272" viewBox="0 0 280 272" fill="none" xmlns="http://www.w3.org/2000/svg">
<path d="M44.3408 225.524H93.7361L100.502 178.681H52.7998L44.3408 225.524ZM60.6243 189.919H89.0997L85.582 214.28H56.2255L60.6243 189.919Z" fill="black" fill-opacity="0.4"/>
<path d="M106.656 132.732L96.4196 139.746L95.4511 146.446H67.7626L71.9125 123.465H95.0654L109.394 113.764L109.526 112.856H64.5297L56.5527 157.046H103.143L106.656 132.732Z" fill="black" fill-opacity="0.4"/>
<path d="M111.696 115.588L87.1911 132.18L80.797 125.012L74.4365 129.524L85.6195 143.311L117.657 121.363L111.696 115.588Z" fill="black" fill-opacity="0.4"/>
<path d="M277.906 20.2816L265.869 3.66607C262.71 -0.694331 257.116 -1.2433 253.372 2.44003L243.001 12.6587L266.481 45.0716L276.855 34.8555C280.597 31.1669 281.065 24.642 277.906 20.2816Z" fill="black" fill-opacity="0.4"/>
<path d="M233.424 85.3633L223.054 95.5115L256.697 257.338H15.4203L51.061 85.9228H160.178L175.137 71.7828H41.5214L0 271.48H272.12L233.424 85.3633Z" fill="black" fill-opacity="0.4"/>
<path d="M238.436 17.155L143.625 110.535L167.11 142.953L220.348 90.5133L220.386 90.474L232.091 78.943L261.916 49.5652L238.436 17.155Z" fill="black" fill-opacity="0.4"/>
<path d="M124.215 157.705L161.019 147.303L138.933 116.812L124.215 157.705Z" fill="black" fill-opacity="0.4"/>
</svg>
