<?xml version="1.0" encoding="UTF-8" standalone="no"?>
<!DOCTYPE svg PUBLIC "-//W3C//DTD SVG 20010904//EN"
"http://www.w3.org/TR/2001/REC-SVG-20010904/DTD/svg10.dtd">
<!-- Created with Sodipodi ("http://www.sodipodi.com/") -->
<svg
   xmlns="http://www.w3.org/2000/svg"
   xmlns:sodipodi="http://sodipodi.sourceforge.net/DTD/sodipodi-0.dtd"
   xmlns:xlink="http://www.w3.org/1999/xlink"
   xml:space="preserve"
   id="svg602"
   sodipodi:version="0.34"
   width="210mm"
   height="297mm"
   sodipodi:docname="C:\Documents and Settings\ing02297\Desktop\Pen.svg"><defs
   id="defs604"><linearGradient
   id="linearGradient662"><stop
   style="stop-color:#ffffff;stop-opacity:0.5294;"
   offset="0"
   id="stop663" /><stop
   style="stop-color:#ffffff;stop-opacity:0;"
   offset="1"
   id="stop664" /></linearGradient><linearGradient
   id="linearGradient655"><stop
   style="stop-color:#8c8c00;stop-opacity:1;"
   offset="0"
   id="stop656" /><stop
   style="stop-color:#ffff4f;stop-opacity:1;"
   offset="1"
   id="stop657" /></linearGradient><linearGradient
   id="linearGradient653"><stop
   style="stop-color:#ffffff;stop-opacity:1;"
   offset="0"
   id="stop654" /><stop
   style="stop-color:#ffffff;stop-opacity:0.2275;"
   offset="1"
   id="stop655" /></linearGradient><linearGradient
   id="linearGradient628"><stop
   style="stop-color:#ffff4f;stop-opacity:1;"
   offset="0"
   id="stop629" /><stop
   style="stop-color:#6f5545;stop-opacity:0;"
   offset="1"
   id="stop630" /></linearGradient><linearGradient
   id="linearGradient622"><stop
   style="stop-color:#000000;stop-opacity:0.1569;"
   offset="0"
   id="stop623" /><stop
   style="stop-color:#ffffb2;stop-opacity:1;"
   offset="1"
   id="stop624" /></linearGradient><linearGradient
   id="linearGradient619"><stop
   style="stop-color:#fffffd;stop-opacity:1;"
   offset="0"
   id="stop620" /><stop
   style="stop-color:#ffff4f;stop-opacity:1;"
   offset="1"
   id="stop621" /></linearGradient><linearGradient
   id="linearGradient607"><stop
   style="stop-color:#ffff4f;stop-opacity:1;"
   offset="0"
   id="stop608" /><stop
   style="stop-color:#6f5545;stop-opacity:1;"
   offset="1"
   id="stop609" /></linearGradient><linearGradient
   xlink:href="#linearGradient607"
   id="linearGradient610"
   x1="5.40645868e-2"
   y1="1.56117957e-2"
   x2="1.7297262"
   y2="0.42187569"
   gradientTransform="scale(1.000002,0.999998)" /><linearGradient
   xlink:href="#linearGradient607"
   id="linearGradient611"
   x1="286.986328"
   y1="415.864899"
   x2="343.965607"
   y2="467.188812"
   gradientUnits="userSpaceOnUse"
   gradientTransform="scale(0.720703,1.387534)"
   spreadMethod="pad" /><radialGradient
   xlink:href="#linearGradient622"
   id="radialGradient617"
   cx="0.29230937"
   cy="0.9453125"
   r="0.89916873"
   fx="0.29230937"
   fy="0.9453125" /><linearGradient
   xlink:href="#linearGradient619"
   id="linearGradient618"
   x1="-1.4493525e-2"
   y1="0.31297418"
   x2="0.55072403"
   y2="0.61832041"
   gradientUnits="objectBoundingBox" /><linearGradient
   xlink:href="#linearGradient628"
   id="linearGradient625"
   x1="-6.2561587e-9"
   y1="1.86118967e-7"
   x2="0.99999988"
   y2="1.86118967e-7" /><linearGradient
   xlink:href="#linearGradient653"
   id="linearGradient652"
   x1="0.41409677"
   y1="0.44339427"
   x2="0.15859061"
   y2="-7.54716843e-2"
   gradientTransform="scale(0.999998,1.000002)" /><radialGradient
   xlink:href="#linearGradient655"
   id="radialGradient654"
   cx="0.50388557"
   cy="0.50796032"
   r="0.87151891"
   fx="0.50388557"
   fy="0.50796032"
   gradientTransform="translate(1.148925e-7,1.81836e-6)" /><radialGradient
   xlink:href="#linearGradient653"
   id="radialGradient659"
   cx="0.52282393"
   cy="0.49997222"
   r="0.9047941"
   fx="0.52282393"
   fy="0.49997222" /><linearGradient
   xlink:href="#linearGradient662"
   id="linearGradient661"
   x1="0.38461331"
   y1="0.41984734"
   x2="0.58974349"
   y2="0.52671754"
   spreadMethod="reflect" /><linearGradient
   xlink:href="#linearGradient662"
   id="linearGradient666"
   x1="0.37168685"
   y1="0.39843759"
   x2="0.50442493"
   y2="0.50000012" /></defs><sodipodi:namedview
   id="base" /><path
   style="font-size:12;fill:url(#linearGradient618);fill-rule:evenodd;stroke:#000000;stroke-width:1;"
   d="M 100.0607 895.3704 L 144.9154 655.5699 C 144.9154 655.5699 234.625 483.0515 251.8768 445.0974 C 269.1286 407.1434 288.1057 343.3116 295.0064 336.4108 C 301.9072 329.51 334.6857 320.8843 351.9375 331.2353 C 376.0901 341.5865 391.6167 367.4642 391.6167 374.3649 C 388.1664 391.6167 343.3116 441.6471 308.8079 567.5855 C 289.8309 627.9669 300.182 695.2491 300.182 695.2491 C 300.182 695.2491 238.0754 703.875 207.0221 733.2031 C 158.717 774.6076 100.0607 897.0956 100.0607 895.3704 L 100.0607 895.3704 L 100.0607 895.3704 L 100.0607 895.3704 z "
   id="path605"
   sodipodi:nodetypes="cccccccccccc"
   transform="translate(-63.71722,-145.9331)" /><path
   style="font-size:12;fill:url(#linearGradient611);fill-rule:evenodd;"
   d="M 357.3125 334.0625 C 378.375 345.5 391.625 368 391.625 374.375 C 388.1875 391.625 343.3125 441.625 308.8125 567.5625 C 289.8125 627.9375 300.1875 695.25 300.1875 695.25 C 300.1875 695.25 238.0625 703.875 207 733.1875 C 158.6875 774.625 100.0625 897.125 100.0625 895.375 L 100.0625 895.375 L 100.0625 895.375 L 100.0625 895.375 L 100.0625 895.375 L 219.0992 598.5534 L 357.3125 334.0625 "
   id="path777"
   sodipodi:nodetypes="cccccccccccc"
   transform="translate(-63.71722,-145.9331)" /><path
   style="font-size:12;fill-rule:evenodd;stroke:#000000;"
   d="M 544.625 185.625 C 508.875 264.3125 468.75 334.0625 429.9375 387.4375 L 389.5625 367.8125 C 384.8125 357.375 371.0625 339.4375 351.9375 331.25 C 340.8125 324.5625 323.1875 325.75 310.3125 329.375 L 274.0625 311.8125 C 285.8125 263.3125 303.8125 208.3125 327.75 150.5625 L 560.8125 150.5625 C 560.25 151.375 559.625 152.0625 558.875 152.6875 C 554.4375 163.5 549.6875 174.5 544.625 185.625 z "
   id="path739"
   transform="translate(-63.71722,-145.9331)" /><path
   style="font-size:12;fill-rule:evenodd;stroke:#000000;"
   d="M 430.625 388.8125 C 423.6875 403.1875 402.5 408.4375 376.4375 404.1875 C 385.1875 388.75 390.5 379.875 391.625 374.375 C 391.625 367.4375 376.0625 341.5625 351.9375 331.25 C 334.6875 320.875 301.9375 329.5 295 336.4375 C 293 338.4375 290 345.1875 286.125 355.5 C 272.8125 340.1875 267.5625 324.375 273.375 312.4375 C 284.0625 290.5 327.875 289.8125 371.3125 310.9375 C 414.75 332 441.3125 366.875 430.625 388.8125 z "
   id="path731"
   transform="translate(-63.71722,-145.9331)" /><path
   sodipodi:type="arc"
   style="font-size:12;fill-rule:evenodd;"
   id="path740"
   d="M 465.6011 614.4548 A 7.788864 15.57773 0 1 0 450.0233 614.4548 A 7.788864 15.57773 0 1 0  465.6011 614.4548 z"
   sodipodi:cx="457.812195"
   sodipodi:cy="614.454834"
   sodipodi:rx="7.78886414"
   sodipodi:ry="15.5777283"
   transform="matrix(0.753186,0.436006,-0.470481,0.999129,58.81458,-329.0665)" /><path
   style="font-size:12;fill:none;fill-rule:evenodd;stroke:url(#linearGradient610);stroke-width:1.875;"
   d="M 170.7344 644.1908 C 130.3456 743.9388 99.74804 895.7027 99.74804 895.7027 "
   id="path748"
   sodipodi:nodetypes="cc"
   transform="translate(-63.71722,-145.9331)" /><path
   style="font-size:12;fill:#ffffb2;stroke-width:1.25;"
   d="M 270.8539 671.0965 C 270.8539 671.0965 267.4035 660.7454 279.4798 610.7151 C 296.7317 493.4025 376.0901 374.3649 376.0901 374.3649 L 365.739 351.9375 L 198.3961 712.501 C 198.3961 712.501 225.9991 683.1728 243.2509 677.9973 C 260.5028 672.8217 272.5791 672.8217 270.8539 671.0965 L 270.8539 671.0965 z "
   id="path626"
   sodipodi:nodetypes="ccccccc"
   transform="translate(-63.71722,-145.9331)" /><path
   style="font-size:12;fill:url(#radialGradient617);stroke-width:1.25;"
   d="M 270.8539 671.0965 C 270.8539 671.0965 267.4035 660.7454 279.4798 610.7151 C 296.7317 493.4025 376.0901 374.3649 376.0901 374.3649 L 365.739 351.9375 L 198.3961 712.501 C 198.3961 712.501 225.9991 683.1728 243.2509 677.9973 C 260.5028 672.8217 272.5791 672.8217 270.8539 671.0965 L 270.8539 671.0965 z "
   id="path606"
   sodipodi:nodetypes="ccccccc"
   transform="translate(-63.71722,-145.9331)" /><path
   style="font-size:12;fill:url(#linearGradient625);fill-rule:evenodd;stroke-width:0.681093;"
   d="M 262.177 421.2257 C 259.0484 433.6471 263.0204 436.2801 269.7522 436.81 C 281.3386 437.7631 295.0368 432.3733 325.4387 404.8246 C 264.1623 467.7756 259.8622 482.2593 224.8947 533.5612 C 242.7781 471.042 252.585 448.1947 262.177 421.2257 L 262.177 421.2257 L 262.177 421.2257 L 262.177 421.2257 L 262.177 421.2257 z "
   id="path627"
   sodipodi:nodetypes="cscccccc"
   transform="translate(-63.71722,-145.9331)" /><path
   style="font-size:12;fill:url(#linearGradient618);fill-rule:evenodd;stroke:#000000;stroke-width:1;"
   d="M 100.0607 895.3704 L 144.9154 655.5699 C 144.9154 655.5699 234.625 483.0515 251.8768 445.0974 C 269.1286 407.1434 288.1057 343.3116 295.0064 336.4108 C 301.9072 329.51 334.6857 320.8843 351.9375 331.2353 C 376.0901 341.5865 391.6167 367.4642 391.6167 374.3649 C 388.1664 391.6167 343.3116 441.6471 308.8079 567.5855 C 289.8309 627.9669 300.182 695.2491 300.182 695.2491 C 300.182 695.2491 238.0754 703.875 207.0221 733.2031 C 158.717 774.6076 100.0607 897.0956 100.0607 895.3704 L 100.0607 895.3704 L 100.0607 895.3704 L 100.0607 895.3704 z "
   id="path642"
   sodipodi:nodetypes="cccccccccccc"
   transform="matrix(0.749687,-0.661793,-0.661793,-0.749687,556.28,1489.141)" /><path
   style="font-size:12;fill:url(#linearGradient611);fill-rule:evenodd;"
   d="M 357.3125 334.0625 C 378.375 345.5 391.625 368 391.625 374.375 C 388.1875 391.625 343.3125 441.625 308.8125 567.5625 C 289.8125 627.9375 300.1875 695.25 300.1875 695.25 C 300.1875 695.25 238.0625 703.875 207 733.1875 C 158.6875 774.625 100.0625 897.125 100.0625 895.375 L 100.0625 895.375 L 100.0625 895.375 L 100.0625 895.375 L 100.0625 895.375 L 219.0992 598.5534 L 357.3125 334.0625 "
   id="path643"
   sodipodi:nodetypes="cccccccccccc"
   transform="matrix(0.749687,-0.661793,-0.661793,-0.749687,556.28,1489.141)" /><path
   sodipodi:type="arc"
   style="font-size:12;fill-rule:evenodd;"
   id="path646"
   d="M 465.6011 614.4548 A 7.788864 15.57773 0 1 0 450.0233 614.4548 A 7.788864 15.57773 0 1 0  465.6011 614.4548 z"
   sodipodi:cx="457.812195"
   sodipodi:cy="614.454834"
   sodipodi:rx="7.78886414"
   sodipodi:ry="15.5777283"
   transform="matrix(0.276108,-0.825321,-1.01393,-0.437673,769.3369,1545.343)" /><path
   style="font-size:12;fill:none;fill-rule:evenodd;stroke:url(#linearGradient610);stroke-width:1.875;"
   d="M 170.7344 644.1908 C 130.3456 743.9388 99.74804 895.7027 99.74804 895.7027 "
   id="path647"
   sodipodi:nodetypes="cc"
   transform="matrix(0.749687,-0.661793,-0.661793,-0.749687,556.28,1489.141)" /><path
   style="font-size:12;fill:#ffffb2;stroke-width:1.25;"
   d="M 270.8539 671.0965 C 270.8539 671.0965 267.4035 660.7454 279.4798 610.7151 C 296.7317 493.4025 376.0901 374.3649 376.0901 374.3649 L 365.739 351.9375 L 198.3961 712.501 C 198.3961 712.501 225.9991 683.1728 243.2509 677.9973 C 260.5028 672.8217 272.5791 672.8217 270.8539 671.0965 L 270.8539 671.0965 z "
   id="path648"
   sodipodi:nodetypes="ccccccc"
   transform="matrix(0.749687,-0.661793,-0.661793,-0.749687,556.28,1489.141)" /><path
   style="font-size:12;fill:url(#radialGradient617);stroke-width:1.25;"
   d="M 270.8539 671.0965 C 270.8539 671.0965 267.4035 660.7454 279.4798 610.7151 C 296.7317 493.4025 376.0901 374.3649 376.0901 374.3649 L 365.739 351.9375 L 198.3961 712.501 C 198.3961 712.501 225.9991 683.1728 243.2509 677.9973 C 260.5028 672.8217 272.5791 672.8217 270.8539 671.0965 L 270.8539 671.0965 z "
   id="path649"
   sodipodi:nodetypes="ccccccc"
   transform="matrix(0.749687,-0.661793,-0.661793,-0.749687,556.28,1489.141)" /><path
   style="font-size:12;fill:url(#linearGradient625);fill-rule:evenodd;stroke-width:0.681093;"
   d="M 262.177 421.2257 C 259.0484 433.6471 263.0204 436.2801 269.7522 436.81 C 281.3386 437.7631 295.0368 432.3733 325.4387 404.8246 C 264.1623 467.7756 259.8622 482.2593 224.8947 533.5612 C 242.7781 471.042 252.585 448.1947 262.177 421.2257 L 262.177 421.2257 L 262.177 421.2257 L 262.177 421.2257 L 262.177 421.2257 z "
   id="path650"
   sodipodi:nodetypes="cscccccc"
   transform="matrix(0.749687,-0.661793,-0.661793,-0.749687,556.28,1489.141)" /><path
   style="font-size:12;fill:url(#linearGradient652);fill-rule:evenodd;"
   d="M 2.1875 1052.375 L 744.0625 1052.375 L 744.0625 751.4375 L 2.1875 751.4375 L 2.1875 1052.375 z "
   id="path710" /><path
   sodipodi:type="arc"
   style="fill-rule:evenodd;stroke:#8c8c8c;fill:url(#radialGradient654);fill-opacity:1;stroke-opacity:1;stroke-width:0.125;stroke-linejoin:miter;stroke-linecap:butt;stroke-dasharray:none;"
   id="path653"
   d="M 49.40221 746.1318 A 2.005634 2.005615 0 1 0 45.39094 746.1318 A 2.005634 2.005615 0 1 0  49.40221 746.1318 z"
   sodipodi:cx="47.3965721"
   sodipodi:cy="746.131775"
   sodipodi:rx="2.00563431"
   sodipodi:ry="2.00561523"
   transform="translate(-10.97827,4.22236)" /><path
   style="fill:url(#radialGradient659);fill-rule:evenodd;stroke:none;stroke-opacity:1;stroke-width:1pt;stroke-linejoin:miter;stroke-linecap:butt;fill-opacity:1;"
   d="M 321.1252 191.5143 C 326.2693 194.0864 335.5819 194.853 339.5958 197.684 C 347.4743 203.2407 353.7456 213.3253 354.0003 222.745 C 354.498 241.1461 334.5389 222.2604 337.9322 222.1695 C 350.2764 221.8389 318.5577 189.5009 321.1252 191.5143 z "
   id="path658" /><path
   style="fill:url(#linearGradient661);fill-rule:evenodd;stroke:none;stroke-opacity:1;stroke-width:1pt;stroke-linejoin:miter;stroke-linecap:butt;fill-opacity:1;"
   d="M 272.763 127.6763 L 301.7803 133.4797 L 388.8324 1.934479 L 311.4528 3.868912 L 272.763 127.6763 z "
   id="path660" /></svg>
