<svg width="109" height="119" viewBox="0 0 109 119" fill="none" xmlns="http://www.w3.org/2000/svg">
<g clip-path="url(#clip0)">
<path d="M107.269 42.6299C106.897 41.5408 106.144 40.6608 105.176 40.1834L37.6455 6.87101C35.6315 5.87808 33.2506 6.8646 32.3308 9.07754L1.50948 83.2236C1.06733 84.2864 1.02818 85.4947 1.40062 86.5839C1.77253 87.6731 2.52523 88.5531 3.49323 89.0304L48.8404 111.4C49.3244 111.639 49.8425 111.767 50.3636 111.784C50.8853 111.801 51.4101 111.707 51.9085 111.5L84.2152 98.0853C85.2121 97.6716 86.0202 96.8422 86.4618 95.7794L107.159 45.9896C107.601 44.928 107.64 43.7191 107.269 42.6299ZM58.1771 99.5203L62.6146 88.8442L72.3377 93.6405L58.1771 99.5203ZM80.8294 88.1719L62.2963 79.0301C60.2829 78.0372 57.9015 79.0237 56.9817 81.2366L48.5227 101.587L10.4728 82.8172L37.9637 16.6845L98.1958 46.3966L80.8294 88.1719Z" fill="black" fill-opacity="0.3"/>
<path d="M73.3197 60.0358L70.5134 51.8242L49.6847 60.4744L46.4977 51.147L38.9821 54.2674L44.9739 71.8074L73.3197 60.0358Z" fill="black" fill-opacity="0.3"/>
</g>
<defs>
<clipPath id="clip0">
<rect width="105" height="115" fill="white" transform="translate(3.88916 0.330322) rotate(1.85548)"/>
</clipPath>
</defs>
</svg>
